<svg xmlns="http://www.w3.org/2000/svg" version="1.1" width="1024" height="1024" class="injected-svg" data-src="https://storage.googleapis.com/illustroke-c1d67.appspot.com/Q4LuhRBSr5OYXy4gj6SmiaOJVeg1/EOKNYRVSIFMTVKROZG179-0.svg" xmlns:xlink="http://www.w3.org/1999/xlink" viewBox="0 0 512 512">
<path d="M0 0 C168.96 0 337.92 0 512 0 C512 168.96 512 337.92 512 512 C343.04 512 174.08 512 0 512 C0 343.04 0 174.08 0 0 Z " fill="#FDFDFD" transform="translate(0,0)"/>
<path d="M0 0 C1.09135254 0.00829834 2.18270508 0.01659668 3.30712891 0.02514648 C17.11858949 0.31173786 28.64969955 2.80847807 39.8125 11.4375 C40.62460937 12.03433594 41.43671875 12.63117188 42.2734375 13.24609375 C51.69788854 20.77626144 55.76550508 30.50078929 55.8125 42.4375 C56.94429687 42.39238281 58.07609375 42.34726563 59.2421875 42.30078125 C64.04935057 42.30606385 68.32916307 43.33597124 72.9375 44.625 C74.18635986 44.96881714 74.18635986 44.96881714 75.46044922 45.31958008 C77.91663898 46.00788936 80.36535877 46.71775258 82.8125 47.4375 C84.05 47.7984375 85.2875 48.159375 86.5625 48.53125 C107.91012468 55.4494617 130.58836367 71.0881706 140.8125 91.4375 C141.21210938 92.22253906 141.61171875 93.00757813 142.0234375 93.81640625 C145.52557087 101.15598363 146.00826947 108.34210207 146.0625 116.375 C146.0934375 117.51485352 146.0934375 117.51485352 146.125 118.67773438 C146.25675454 137.96330494 129.34746167 158.60682789 112.625 166.5 C108.23133315 168.76471311 106.74828157 169.89048403 108.1875 175.09765625 C110.91281864 185.30056792 109.09122501 197.01777359 97.8125 200.4375 C95.5025 200.4375 93.1925 200.4375 90.8125 200.4375 C90.8125 207.3675 90.8125 214.2975 90.8125 221.4375 C88.7603125 221.41429687 86.708125 221.39109375 84.59375 221.3671875 C64.10727167 221.02177996 64.10727167 221.02177996 43.8125 223.4375 C43.14766602 223.56640625 42.48283203 223.6953125 41.79785156 223.828125 C31.98114824 225.79784903 22.00515441 228.43716612 14.59765625 235.5703125 C10.61049016 238.24333549 7.15617359 238.28531716 2.4375 238.3125 C1.55280029 238.31805908 0.66810059 238.32361816 -0.2434082 238.3293457 C-9.32248107 237.99757411 -14.73212627 233.9810424 -21.6640625 228.55224609 C-27.383219 224.36736331 -34.97044652 223.84753042 -41.78125 222.8671875 C-44.1875 222.4375 -44.1875 222.4375 -45.1875 221.4375 C-48.07002645 221.27726438 -50.93128527 221.17795971 -53.81640625 221.12109375 C-55.11275246 221.0899221 -55.11275246 221.0899221 -56.43528748 221.05812073 C-59.20677445 220.99252886 -61.97835921 220.93369582 -64.75 220.875 C-66.62435923 220.83182392 -68.49870843 220.78820994 -70.37304688 220.74414062 C-74.97776566 220.63601032 -79.58255441 220.53700917 -84.1875 220.4375 C-84.1875 213.8375 -84.1875 207.2375 -84.1875 200.4375 C-85.734375 200.39625 -87.28125 200.355 -88.875 200.3125 C-99.88314633 199.23815474 -101.66268344 189.20757542 -101.50390625 179.765625 C-100.78634424 172.21793574 -97.22289088 166.89250679 -92.1875 161.4375 C-91.1875 164.4375 -91.1875 164.4375 -92.1875 167.4375 C-92.33453064 169.87198818 -92.40855339 172.3112477 -92.4375 174.75 C-92.46328125 176.04550781 -92.4890625 177.34101563 -92.515625 178.67578125 C-92.08071441 183.66172055 -91.69745281 187.90086598 -86.30078125 189.0546875 C-82.58873426 188.31879864 -81.09024385 187.16210314 -78.375 184.5625 C-77.22064453 183.48355469 -77.22064453 183.48355469 -76.04296875 182.3828125 C-72.24814733 178.40424183 -72.89728016 174.23710194 -72.8125 169 C-72.77511719 168.12794922 -72.73773438 167.25589844 -72.69921875 166.35742188 C-72.57206352 157.16692465 -76.6378211 156.57053692 -85.1875 155.4375 C-85.21239739 149.78157871 -85.23045273 144.12569 -85.24243164 138.46972656 C-85.24743062 136.54947351 -85.254232 134.6292242 -85.26293945 132.70898438 C-85.27520084 129.93358428 -85.28077281 127.15823493 -85.28515625 124.3828125 C-85.29031754 123.5376004 -85.29547882 122.69238831 -85.30079651 121.82156372 C-85.30133517 115.97292295 -84.86794007 110.24547145 -84.1875 104.4375 C-83.8575 104.4375 -83.5275 104.4375 -83.1875 104.4375 C-83.1875 108.0675 -83.1875 111.6975 -83.1875 115.4375 C-81.846875 115.39625 -80.50625 115.355 -79.125 115.3125 C-69.62845629 115.3125 -60.2674515 116.69017823 -51.1875 119.4375 C-49.94033203 119.77201172 -49.94033203 119.77201172 -48.66796875 120.11328125 C-41.04243936 122.23076215 -34.31791824 125.59045388 -27.5 129.5625 C-24.13731675 131.46590561 -20.76375495 132.98050724 -17.1875 134.4375 C-16.41317627 134.78603027 -15.63885254 135.13456055 -14.84106445 135.49365234 C-0.58939878 140.56283438 16.69956626 137.3506788 29.10205078 129.48046875 C46.49227148 118.87655456 69.63227239 113.71677759 89.8125 114.4375 C89.8125 111.1375 89.8125 107.8375 89.8125 104.4375 C85.13092099 104.55545925 80.44956712 104.67968549 75.76831055 104.80981445 C74.174607 104.85322146 72.5808552 104.89489219 70.98706055 104.93481445 C68.70086092 104.99237807 66.41490551 105.05611149 64.12890625 105.12109375 C63.41223282 105.13780624 62.69555939 105.15451874 61.95716858 105.17173767 C58.59722618 104.98768654 58.59722618 104.98768654 55.8125 106.4375 C53.39418921 106.84153485 50.99313589 107.19102086 48.5625 107.5 C47.55896484 107.63631836 47.55896484 107.63631836 46.53515625 107.77539062 C42.9375388 108.24541334 39.44042471 108.54296293 35.8125 108.4375 C38.5625 104.4375 38.5625 104.4375 40.8125 104.4375 C41.49768317 103.11358677 42.16098375 101.77830155 42.8125 100.4375 C43.86549622 99.24338058 44.95183767 98.07818024 46.0625 96.9375 C53.33105922 88.71095075 56.08661558 81.01818121 56.41015625 70.16015625 C57.01867735 66.04229989 59.20687095 65.12993813 62.8125 63.4375 C65.66767034 59.80364684 65.58964686 55.81778229 64.8125 51.4375 C62.4379866 50.42775547 60.34603427 50.12815678 57.78125 49.88671875 C55.8125 49.4375 55.8125 49.4375 55.8125 46.4375 C52.81464572 46.4375 53.46549944 47.68039123 52.8125 50.4375 C52.338125 51.345 51.86375 52.2525 51.375 53.1875 C50.04245111 55.95920169 49.48460001 57.86337045 48.9375 60.8125 C47.8125 64.4375 47.8125 64.4375 42.8125 64.4375 C43.1425 60.4775 43.4725 56.5175 43.8125 52.4375 C42.8225 52.9325 42.8225 52.9325 41.8125 53.4375 C39.85872267 53.75826941 37.89919242 54.04435499 35.9375 54.3125 C26.2818254 55.7635185 17.33484719 57.57180005 8.8125 62.4375 C7.71679688 63.02789062 6.62109375 63.61828125 5.4921875 64.2265625 C-0.7921858 67.65884904 -6.51217338 71.08767135 -11.5390625 76.28515625 C-13.91190706 77.9438983 -14.66923001 77.86468202 -17.1875 76.4375 C-18.61052341 73.96856911 -19.76476815 71.66513502 -20.875 69.0625 C-21.18244141 68.37671875 -21.48988281 67.6909375 -21.80664062 66.984375 C-23.05969483 64.16568851 -24.21171295 61.36486115 -25.1875 58.4375 C-28.50235938 58.4375 -27.41626841 60.88169196 -27.6875 63.8125 C-27.7803125 64.81023437 -27.873125 65.80796875 -27.96875 66.8359375 C-28.21542947 69.33453736 -28.21542947 69.33453736 -28.1875 71.4375 C-32.25158669 69.81380986 -35.03799127 66.93075267 -38.0625 63.875 C-38.59335205 63.34140869 -39.1242041 62.80781738 -39.67114258 62.25805664 C-53.66088478 47.89468202 -55.83547225 30.86003822 -41.6875 15.1875 C-29.8200159 4.31842756 -15.86746083 -0.15653002 0 0 Z " fill="#A59D3F" transform="translate(253.1875,141.5625)"/>
<path d="M0 0 C1.93576996 0 1.39391429 3.28669265 1.5625 4.8125 C3.40597997 15.24552792 14.27839057 29.13919528 24 34 C23.67 33.34 23.34 32.68 23 32 C23.08744368 30.12137125 23.24175542 28.24544819 23.4375 26.375 C23.53933594 25.37210938 23.64117187 24.36921875 23.74609375 23.3359375 C24 21 24 21 28 21 C29.03320312 22.54467773 29.03320312 22.54467773 29.78125 24.68359375 C30.06613281 25.44607422 30.35101563 26.20855469 30.64453125 26.99414062 C30.92683594 27.80044922 31.20914063 28.60675781 31.5 29.4375 C32.05839385 31.02471539 32.63072969 32.60711397 33.21875 34.18359375 C33.5890332 35.24404907 33.5890332 35.24404907 33.96679688 36.32592773 C35.35672588 38.57799371 36.41383954 38.77638817 39 39 C41.0188614 37.58719609 41.0188614 37.58719609 42.9375 35.5 C48.34892429 30.39218697 54.3887104 27.30987738 61 24 C61.68707031 23.60941406 62.37414062 23.21882813 63.08203125 22.81640625 C72.95486022 17.2884824 84.8496579 15.41528276 96 15 C96.02698189 16.62490954 96.04638757 18.24994633 96.0625 19.875 C96.07410156 20.77992188 96.08570313 21.68484375 96.09765625 22.6171875 C96 25 96 25 95 27 C100.51714237 27.83205029 100.51714237 27.83205029 100.1875 23.625 C100.70388235 19.38762721 102.99423219 9 108 9 C108 9.99 108 10.98 108 12 C108.9075 11.9175 109.815 11.835 110.75 11.75 C115.71440399 12.13187723 117.70268003 14.00370879 118.4375 18.9375 C117.7262042 23.91657063 114.7523476 30 109 30 C109.06960938 30.79921875 109.13921875 31.5984375 109.2109375 32.421875 C110.04340774 49.30912841 100.26946293 58.77014854 89 70 C92.14656903 69.69463301 95.29208482 69.37951468 98.4375 69.0625 C99.33533203 68.97548828 100.23316406 68.88847656 101.15820312 68.79882812 C102.01220703 68.71181641 102.86621094 68.62480469 103.74609375 68.53515625 C104.53685303 68.456604 105.3276123 68.37805176 106.14233398 68.29711914 C108.01103348 68.18448501 108.01103348 68.18448501 109 67 C111.44830426 66.91156207 113.86820599 66.88471248 116.31640625 66.90234375 C117.04746078 66.9037587 117.77851532 66.90517365 118.53172302 66.90663147 C120.87535632 66.91224592 123.21889539 66.92480078 125.5625 66.9375 C127.14778508 66.94251314 128.73307166 66.94707637 130.31835938 66.95117188 C134.2122761 66.96222003 138.10612205 66.97949428 142 67 C142 77 142 77 137.33984375 77.41015625 C116.51991236 79.44930729 97.61983755 84.40362219 79 94 C77.4378297 94.77150128 75.87539208 95.54246193 74.3125 96.3125 C72.57733356 97.19645272 70.8452655 98.0919401 69.17114258 99.08666992 C64.41261224 101.08843108 58.76983242 100.32589571 53.6875 100.3125 C52.47642578 100.32861328 51.26535156 100.34472656 50.01757812 100.36132812 C43.50370489 100.36489346 38.7248084 100.15300361 33 97 C31.85660156 96.44441406 30.71320313 95.88882813 29.53515625 95.31640625 C28.38917969 94.73761719 27.24320312 94.15882813 26.0625 93.5625 C25.44552246 93.25465576 24.82854492 92.94681152 24.19287109 92.62963867 C21.72745346 91.39692985 19.27684001 90.15702895 16.87890625 88.796875 C10.69351506 85.32534142 3.76204962 84.04753896 -3.08984375 82.47143555 C-4.8709839 82.03184178 -6.62707631 81.49400748 -8.37890625 80.94921875 C-12.86526789 79.7731822 -17.26488641 79.34282344 -21.875 78.9375 C-23.58108969 78.78390115 -25.28684781 78.626557 -26.9921875 78.46484375 C-28.11149658 78.36610962 -28.11149658 78.36610962 -29.25341797 78.26538086 C-31 78 -31 78 -32 77 C-32.33 90.53 -32.66 104.06 -33 118 C-30.69 118 -28.38 118 -26 118 C-17.33708026 122.33145987 -18.69452752 132.24213356 -20 141 C-21.74457238 144.59937873 -23.77467886 146.69245317 -27 149 C-27.67546875 149.54398438 -28.3509375 150.08796875 -29.046875 150.6484375 C-33.17581526 153.50566416 -36.03965104 153.03616598 -39.375 149.4375 C-42.29682198 143.56970875 -41.26091306 136.35613205 -41 130 C-41 128.68 -41 127.36 -41 126 C-43.12038635 128.61514317 -45.13091744 131.19637616 -47 134 C-47 133.34 -47 132.68 -47 132 C-48.99911759 131.33069191 -50.99929911 130.6645603 -53 130 C-55.74609375 128.265625 -55.74609375 128.265625 -58.4375 126.25 C-59.32308594 125.59515625 -60.20867187 124.9403125 -61.12109375 124.265625 C-81.0915939 108.54935622 -95.20573611 83.46758206 -84 58 C-83.73316406 57.33355469 -83.46632813 56.66710937 -83.19140625 55.98046875 C-80.50029791 49.91650463 -76.24139601 45.03912598 -72 40 C-71.22398437 39.01515625 -70.44796875 38.0303125 -69.6484375 37.015625 C-66.96840683 33.80286966 -63.91163743 31.35845396 -60.5625 28.875 C-60.01529297 28.45863281 -59.46808594 28.04226562 -58.90429688 27.61328125 C-46.93271822 18.57438518 -33.8095717 12.921116 -19.5 8.5625 C-18.30093018 8.1924585 -18.30093018 8.1924585 -17.07763672 7.81494141 C-11.41536063 6.16818134 -5.87723169 5.40796906 0 5 C0 3.35 0 1.7 0 0 Z " fill="#F5EAD9" transform="translate(201,179)"/>
<path d="M0 0 C1.09135254 0.00829834 2.18270508 0.01659668 3.30712891 0.02514648 C17.11858949 0.31173786 28.64969955 2.80847807 39.8125 11.4375 C40.62460937 12.03433594 41.43671875 12.63117188 42.2734375 13.24609375 C51.69788854 20.77626144 55.76550508 30.50078929 55.8125 42.4375 C56.94429688 42.39238281 58.07609375 42.34726563 59.2421875 42.30078125 C64.04935057 42.30606385 68.32916307 43.33597124 72.9375 44.625 C73.77007324 44.85421143 74.60264648 45.08342285 75.46044922 45.31958008 C77.91663898 46.00788936 80.36535877 46.71775258 82.8125 47.4375 C84.05 47.7984375 85.2875 48.159375 86.5625 48.53125 C107.91012468 55.4494617 130.58836367 71.0881706 140.8125 91.4375 C141.21210938 92.22253906 141.61171875 93.00757813 142.0234375 93.81640625 C145.52557087 101.15598363 146.00826947 108.34210207 146.0625 116.375 C146.0934375 117.51485352 146.0934375 117.51485352 146.125 118.67773438 C146.26749602 139.53558864 127.6222183 159.49117738 110.0625 168.24609375 C107.69594108 169.35805251 107.69594108 169.35805251 105.8125 171.4375 C104.1497974 168.76271756 102.81266187 166.4379856 101.8125 163.4375 C101.1525 163.4375 100.4925 163.4375 99.8125 163.4375 C99.97105469 163.94539062 100.12960937 164.45328125 100.29296875 164.9765625 C100.98948681 168.27585856 101.0610856 171.44185638 101.125 174.8125 C101.18107422 176.74222656 101.18107422 176.74222656 101.23828125 178.7109375 C100.56300729 184.6211334 98.28270746 189.4375 92.125 189.4375 C82.76190152 188.1935695 79.46532325 178.28790724 79.5 170.125 C79.48388672 169.37798828 79.46777344 168.63097656 79.45117188 167.86132812 C79.44699968 163.10920008 79.65975877 159.22922894 82.8125 155.4375 C85.7825 155.4375 88.7525 155.4375 91.8125 155.4375 C91.8125 138.9375 91.8125 122.4375 91.8125 105.4375 C86.058125 105.416875 80.30375 105.39625 74.375 105.375 C71.64778687 105.36134399 71.64778687 105.36134399 68.86547852 105.34741211 C67.43245518 105.34449289 65.99943102 105.34194434 64.56640625 105.33984375 C63.81580933 105.33472778 63.0652124 105.32961182 62.29187012 105.32434082 C58.75906414 104.99527105 58.75906414 104.99527105 55.8125 106.4375 C53.39418921 106.84153485 50.99313589 107.19102086 48.5625 107.5 C47.55896484 107.63631836 47.55896484 107.63631836 46.53515625 107.77539062 C42.9375388 108.24541334 39.44042471 108.54296293 35.8125 108.4375 C38.5625 104.4375 38.5625 104.4375 40.8125 104.4375 C41.49768317 103.11358677 42.16098375 101.77830155 42.8125 100.4375 C43.86549622 99.24338058 44.95183767 98.07818024 46.0625 96.9375 C53.33105922 88.71095075 56.08661558 81.01818121 56.41015625 70.16015625 C57.01867735 66.04229989 59.20687095 65.12993813 62.8125 63.4375 C65.66767034 59.80364684 65.58964686 55.81778229 64.8125 51.4375 C62.4379866 50.42775547 60.34603427 50.12815678 57.78125 49.88671875 C55.8125 49.4375 55.8125 49.4375 55.8125 46.4375 C52.81464572 46.4375 53.46549944 47.68039123 52.8125 50.4375 C52.338125 51.345 51.86375 52.2525 51.375 53.1875 C50.04245111 55.95920169 49.48460001 57.86337045 48.9375 60.8125 C47.8125 64.4375 47.8125 64.4375 42.8125 64.4375 C43.1425 60.4775 43.4725 56.5175 43.8125 52.4375 C42.8225 52.9325 42.8225 52.9325 41.8125 53.4375 C39.85872267 53.75826941 37.89919242 54.04435499 35.9375 54.3125 C26.2818254 55.7635185 17.33484719 57.57180005 8.8125 62.4375 C7.71679688 63.02789062 6.62109375 63.61828125 5.4921875 64.2265625 C-0.7921858 67.65884904 -6.51217338 71.08767135 -11.5390625 76.28515625 C-13.91190706 77.9438983 -14.66923001 77.86468202 -17.1875 76.4375 C-18.61052341 73.96856911 -19.76476815 71.66513502 -20.875 69.0625 C-21.18244141 68.37671875 -21.48988281 67.6909375 -21.80664062 66.984375 C-23.05969483 64.16568851 -24.21171295 61.36486115 -25.1875 58.4375 C-28.50235938 58.4375 -27.41626841 60.88169196 -27.6875 63.8125 C-27.7803125 64.81023437 -27.873125 65.80796875 -27.96875 66.8359375 C-28.21542947 69.33453736 -28.21542947 69.33453736 -28.1875 71.4375 C-32.25158669 69.81380986 -35.03799127 66.93075267 -38.0625 63.875 C-38.59335205 63.34140869 -39.1242041 62.80781738 -39.67114258 62.25805664 C-53.66088478 47.89468202 -55.83547225 30.86003822 -41.6875 15.1875 C-29.8200159 4.31842756 -15.86746083 -0.15653002 0 0 Z " fill="#F9DC9E" transform="translate(253.1875,141.5625)"/>
<path d="M0 0 C0 3.63 0 7.26 0 11 C1.340625 10.95875 2.68125 10.9175 4.0625 10.875 C13.55904371 10.875 22.9200485 12.25267823 32 15 C32.83144531 15.22300781 33.66289062 15.44601562 34.51953125 15.67578125 C42.14506064 17.79326215 48.86958176 21.15295388 55.6875 25.125 C59.05018325 27.02840561 62.42374505 28.54300724 66 30 C66.78528076 30.34981934 67.57056152 30.69963867 68.37963867 31.06005859 C71.15359785 32.05509659 73.36395703 32.31101604 76.30078125 32.4140625 C77.27724609 32.45273437 78.25371094 32.49140625 79.25976562 32.53125 C80.26716797 32.5621875 81.27457031 32.593125 82.3125 32.625 C83.85260742 32.68300781 83.85260742 32.68300781 85.42382812 32.7421875 C87.94904265 32.83614897 90.47425592 32.9218154 93 33 C93 33.33 93 33.66 93 34 C87.06 34 81.12 34 75 34 C75 66.34 75 98.68 75 132 C70.92896637 130.37158655 68.61714888 129.12087292 65.25 126.5625 C57.71884362 121.20849207 50.4632741 119.73335006 41.40625 118.4296875 C39 118 39 118 38 117 C35.11747355 116.83976438 32.25621473 116.74045971 29.37109375 116.68359375 C28.07474754 116.6524221 28.07474754 116.6524221 26.75221252 116.62062073 C23.98072555 116.55502886 21.20914079 116.49619582 18.4375 116.4375 C16.56314077 116.39432392 14.68879157 116.35070994 12.81445312 116.30664062 C8.20973434 116.19851032 3.60494559 116.09950917 -1 116 C-1 109.4 -1 102.8 -1 96 C-2.546875 95.95875 -4.09375 95.9175 -5.6875 95.875 C-16.69564633 94.80065474 -18.47518344 84.77007542 -18.31640625 75.328125 C-17.59884424 67.78043574 -14.03539088 62.45500679 -9 57 C-8 60 -8 60 -9 63 C-9.14703064 65.43448818 -9.22105339 67.8737477 -9.25 70.3125 C-9.27578125 71.60800781 -9.3015625 72.90351563 -9.328125 74.23828125 C-8.89321441 79.22422055 -8.50995281 83.46336598 -3.11328125 84.6171875 C0.59876574 83.88129864 2.09725615 82.72460314 4.8125 80.125 C5.96685547 79.04605469 5.96685547 79.04605469 7.14453125 77.9453125 C10.93935267 73.96674183 10.29021984 69.79960194 10.375 64.5625 C10.41238281 63.69044922 10.44976562 62.81839844 10.48828125 61.91992188 C10.61543648 52.72942465 6.5496789 52.13303692 -2 51 C-2.02489739 45.34407871 -2.04295273 39.68819 -2.05493164 34.03222656 C-2.05993062 32.11197351 -2.066732 30.1917242 -2.07543945 28.27148438 C-2.08770084 25.49608428 -2.09327281 22.72073493 -2.09765625 19.9453125 C-2.10281754 19.1001004 -2.10797882 18.25488831 -2.11329651 17.38406372 C-2.11489759 0 -2.11489759 0 0 0 Z " fill="#A49C3E" transform="translate(170,246)"/>
<path d="M0 0 C3.39934634 0 1.6617524 6.61752397 2 10 C1.0925 10.0825 0.185 10.165 -0.75 10.25 C-7.25866139 11.75199878 -8.94568001 15.38051882 -8.73046875 21.734375 C-7.74582304 24.78835634 -6.32984355 25.40736224 -3.625 27.0625 C1.13722799 30.24719368 1.80869738 33.21173303 2.1875 38.6875 C3.11752383 52.06411141 9.73151176 60.78751471 19 70 C2.25668637 70.35456429 -14.31638086 69.2571224 -31 68 C-31.77913247 74.30237758 -32.1916771 80.50112573 -32.31640625 86.84765625 C-32.33718735 87.74495956 -32.35796844 88.64226288 -32.37937927 89.5667572 C-32.44412226 92.39860288 -32.50340518 95.23053141 -32.5625 98.0625 C-32.60575702 99.99675294 -32.64937344 101.93099788 -32.69335938 103.86523438 C-32.79972503 108.57674067 -32.90119819 113.28832926 -33 118 C-31.90429688 117.97035156 -30.80859375 117.94070313 -29.6796875 117.91015625 C-18.97329594 118.17156496 -19.5731325 125.08336408 -19.46777344 133.69726562 C-19.5984302 140.76339676 -21.10486073 144.78233938 -27 149 C-27.67546875 149.54398438 -28.3509375 150.08796875 -29.046875 150.6484375 C-33.17581526 153.50566416 -36.03965104 153.03616598 -39.375 149.4375 C-42.29682198 143.56970875 -41.26091306 136.35613205 -41 130 C-41 128.68 -41 127.36 -41 126 C-43.12038635 128.61514317 -45.13091744 131.19637616 -47 134 C-47 133.34 -47 132.68 -47 132 C-48.99911759 131.33069191 -50.99929911 130.6645603 -53 130 C-55.74609375 128.265625 -55.74609375 128.265625 -58.4375 126.25 C-59.32308594 125.59515625 -60.20867187 124.9403125 -61.12109375 124.265625 C-81.0915939 108.54935622 -95.20573611 83.46758206 -84 58 C-83.73316406 57.33355469 -83.46632813 56.66710937 -83.19140625 55.98046875 C-80.50029791 49.91650463 -76.24139601 45.03912598 -72 40 C-71.22398437 39.01515625 -70.44796875 38.0303125 -69.6484375 37.015625 C-66.96840683 33.80286966 -63.91163743 31.35845396 -60.5625 28.875 C-60.01529297 28.45863281 -59.46808594 28.04226562 -58.90429688 27.61328125 C-46.93271822 18.57438518 -33.8095717 12.921116 -19.5 8.5625 C-18.30093018 8.1924585 -18.30093018 8.1924585 -17.07763672 7.81494141 C-11.41536063 6.16818134 -5.87723169 5.40796906 0 5 C0 3.35 0 1.7 0 0 Z " fill="#F9DC9E" transform="translate(201,179)"/>
<path d="M0 0 C1.09135254 0.00829834 2.18270508 0.01659668 3.30712891 0.02514648 C17.11858949 0.31173786 28.64969955 2.80847807 39.8125 11.4375 C40.62460937 12.03433594 41.43671875 12.63117188 42.2734375 13.24609375 C54.84823073 23.29339531 58.85630888 38.40260751 51.8828125 53.10546875 C50.4452878 56.23759372 49.64246852 59.48140347 48.81640625 62.8203125 C47.8125 64.4375 47.8125 64.4375 42.8125 64.4375 C43.1425 60.4775 43.4725 56.5175 43.8125 52.4375 C42.8225 52.9325 42.8225 52.9325 41.8125 53.4375 C39.85872267 53.75826941 37.89919242 54.04435499 35.9375 54.3125 C26.2818254 55.7635185 17.33484719 57.57180005 8.8125 62.4375 C7.71679688 63.02789062 6.62109375 63.61828125 5.4921875 64.2265625 C-0.7921858 67.65884904 -6.51217338 71.08767135 -11.5390625 76.28515625 C-13.91190706 77.9438983 -14.66923001 77.86468202 -17.1875 76.4375 C-18.61052341 73.96856911 -19.76476815 71.66513502 -20.875 69.0625 C-21.18244141 68.37671875 -21.48988281 67.6909375 -21.80664062 66.984375 C-23.05969483 64.16568851 -24.21171295 61.36486115 -25.1875 58.4375 C-28.50235938 58.4375 -27.41626841 60.88169196 -27.6875 63.8125 C-27.7803125 64.81023437 -27.873125 65.80796875 -27.96875 66.8359375 C-28.21542947 69.33453736 -28.21542947 69.33453736 -28.1875 71.4375 C-32.25158669 69.81380986 -35.03799127 66.93075267 -38.0625 63.875 C-38.59335205 63.34140869 -39.1242041 62.80781738 -39.67114258 62.25805664 C-53.66088478 47.89468202 -55.83547225 30.86003822 -41.6875 15.1875 C-29.8200159 4.31842756 -15.86746083 -0.15653002 0 0 Z " fill="#444241" transform="translate(253.1875,141.5625)"/>
<path d="M0 0 C0.73105453 0.00141495 1.46210907 0.0028299 2.21531677 0.00428772 C4.55895007 0.00990217 6.90248914 0.02245703 9.24609375 0.03515625 C10.83137883 0.04016939 12.41666541 0.04473262 14.00195312 0.04882812 C17.89586985 0.05987628 21.7897158 0.07715053 25.68359375 0.09765625 C25.68359375 10.09765625 25.68359375 10.09765625 21.0234375 10.5078125 C0.20350611 12.54696354 -18.6965687 17.50127844 -37.31640625 27.09765625 C-38.87857655 27.86915753 -40.44101417 28.64011818 -42.00390625 29.41015625 C-43.73907269 30.29410897 -45.47114075 31.18959635 -47.14526367 32.18432617 C-51.90379401 34.18608733 -57.54657383 33.42355196 -62.62890625 33.41015625 C-63.83998047 33.42626953 -65.05105469 33.44238281 -66.29882812 33.45898438 C-72.81270136 33.46254971 -77.59159785 33.25065986 -83.31640625 30.09765625 C-84.45980469 29.54207031 -85.60320312 28.98648437 -86.78125 28.4140625 C-87.92722656 27.83527344 -89.07320312 27.25648438 -90.25390625 26.66015625 C-90.87088379 26.35231201 -91.48786133 26.04446777 -92.12353516 25.72729492 C-94.58895279 24.4945861 -97.03956624 23.2546852 -99.4375 21.89453125 C-105.62310276 18.42287892 -112.55455926 17.14560709 -119.40649414 15.56884766 C-121.18601212 15.12982558 -122.94081558 14.59378854 -124.69140625 14.05078125 C-129.19702671 12.8661138 -133.62446996 12.40215528 -138.25390625 11.97265625 C-139.12853516 11.88628906 -140.00316406 11.79992187 -140.90429688 11.7109375 C-143.04110879 11.50075928 -145.17868747 11.29840107 -147.31640625 11.09765625 C-147.31640625 7.79765625 -147.31640625 4.49765625 -147.31640625 1.09765625 C-137.1488774 0.93017891 -127.08386588 1.30319763 -116.9465332 2.04980469 C-115.30992525 2.16561862 -113.67247069 2.27000246 -112.03442383 2.36328125 C-95.49008354 3.30970493 -95.49008354 3.30970493 -89.10961914 8.63134766 C-85.93345679 11.2284928 -82.09577091 12.58039307 -78.31640625 14.09765625 C-77.60097656 14.45601563 -76.88554687 14.814375 -76.1484375 15.18359375 C-60.95542392 20.08726986 -44.94958052 14.78635297 -32.10546875 6.68359375 C-26.79096753 3.66162247 -21.51386683 2.70944451 -15.50390625 2.03515625 C-9.94251436 1.39730941 -5.6253192 -0.04051201 0 0 Z " fill="#E9E9F1" transform="translate(317.31640625,245.90234375)"/>
<path d="M0 0 C5.94 0 11.88 0 18 0 C18 32.34 18 64.68 18 98 C12.06 98 6.12 98 0 98 C0 65.66 0 33.32 0 0 Z " fill="#414043" transform="translate(245,280)"/>
<path d="M0 0 C6.50878772 4.64913408 7.29756603 10.88049732 7.375 18.5 C7.40335937 19.7684375 7.43171875 21.036875 7.4609375 22.34375 C6.71994913 28.22142046 4.43573822 33 -1.6875 33 C-11.05059848 31.7560695 -14.34717675 21.85040724 -14.3125 13.6875 C-14.32861328 12.94048828 -14.34472656 12.19347656 -14.36132812 11.42382812 C-14.37085768 0.56966903 -10.64139434 -2.96027075 0 0 Z " fill="#F2E6DE" transform="translate(347,298)"/>
<path d="M0 0 C2.26747617 9.82858997 1.58163678 20.86029239 -7 27 C-7.67546875 27.54398437 -8.3509375 28.08796875 -9.046875 28.6484375 C-13.17581526 31.50566416 -16.03965104 31.03616598 -19.375 27.4375 C-25.15741723 15.53252335 -14.71224621 -18.02941237 0 0 Z " fill="#F5EBE2" transform="translate(181,301)"/>
<path d="M0 0 C0.33 0 0.66 0 1 0 C1.33 31.68 1.66 63.36 2 96 C4.64 94.02 7.28 92.04 10 90 C12.8984375 88.28515625 12.8984375 88.28515625 15.375 87.0625 C16.62410156 86.43021484 16.62410156 86.43021484 17.8984375 85.78515625 C20 85 20 85 22 86 C18.17486686 89.44261983 14.12589658 91.51677283 9.5 93.65625 C6.88933946 94.90804479 6.88933946 94.90804479 4.83203125 97.140625 C0.57675766 99.93443221 -3.34486394 99.43255624 -8.3125 99.25 C-9.24384766 99.23195313 -10.17519531 99.21390625 -11.13476562 99.1953125 C-18 99.05448718 -18 99.05448718 -18 98 C-12.06 98 -6.12 98 0 98 C0 65.66 0 33.32 0 0 Z " fill="#827D4A" transform="translate(263,280)"/>
<path d="M0 0 C0 0.99 0 1.98 0 3 C-6.6 3 -13.2 3 -20 3 C-20 -0.46511434 -16.72205603 -1.29204328 -14 -3 C-9.20002626 -6.1999825 -3.95141859 -3.95141859 0 0 Z " fill="#C1BDA8" transform="translate(248,226)"/>
<path d="M0 0 C-3.43947267 7.93724462 -11.41627721 7.37918614 -19 7 C-21 5 -21 5 -21 2 C-18.06271706 1.66465271 -15.12520182 1.33163987 -12.1875 1 C-11.35412109 0.90460938 -10.52074219 0.80921875 -9.66210938 0.7109375 C-8.45844727 0.57558594 -8.45844727 0.57558594 -7.23046875 0.4375 C-6.12288208 0.31181641 -6.12288208 0.31181641 -4.99291992 0.18359375 C-3 0 -3 0 0 0 Z " fill="#CEC9B4" transform="translate(284,223)"/>
<path d="M0 0 C3.6875 0.125 3.6875 0.125 6.6875 2.125 C5.56676138 2.96405565 4.44075453 3.79607831 3.3125 4.625 C2.68601563 5.0890625 2.05953125 5.553125 1.4140625 6.03125 C-0.3125 7.125 -0.3125 7.125 -2.3125 7.125 C-2.3125 7.785 -2.3125 8.445 -2.3125 9.125 C2.9675 9.125 8.2475 9.125 13.6875 9.125 C13.6875 9.455 13.6875 9.785 13.6875 10.125 C8.0775 10.125 2.4675 10.125 -3.3125 10.125 C-3.3125 0.125 -3.3125 0.125 0 0 Z " fill="#DED6C2" transform="translate(230.3125,219.875)"/>
<path d="M0 0 C1.20227899 2.31387514 2.22074739 4.52897313 3.1875 6.9375 C3.46013672 7.58396484 3.73277344 8.23042969 4.01367188 8.89648438 C6 13.69055451 6 13.69055451 6 16 C1.6038329 16 -0.89490775 10.96684867 -1.3125 7.125 C-1.209375 6.42375 -1.10625 5.7225 -1 5 C-1.99 5 -2.98 5 -4 5 C-4.1637931 -1.38793103 -4.1637931 -1.38793103 0 0 Z " fill="#C2B08E" transform="translate(229,200)"/>
<path d="M0 0 C-3.85816864 3.47235177 -7.9886518 5.58984804 -12.6171875 7.828125 C-15.16987267 9.08354394 -17.59697507 10.47808421 -20 12 C-18.50115053 8.02059848 -16.25287411 6.56536515 -12.6875 4.375 C-11.74261719 3.78460938 -10.79773438 3.19421875 -9.82421875 2.5859375 C-2.76091205 -1.38045603 -2.76091205 -1.38045603 0 0 Z " fill="#8F8343" transform="translate(285,366)"/>
<path d="M0 0 C0 3.54669748 -4.05283488 3.06742822 -7 3.625 C-7.66773438 3.7590625 -8.33546875 3.893125 -9.0234375 4.03125 C-10.68061081 4.36268466 -12.34011586 4.68242013 -14 5 C-10.35173523 -0.39684138 -6.21929048 -0.18292031 0 0 Z " fill="#9E955C" transform="translate(297,363)"/>
</svg>